<svg width="36" height="35" viewBox="0 0 36 35" fill="none" xmlns="http://www.w3.org/2000/svg">
<path d="M35.5076 17.5683C35.5076 19.9472 35.4584 22.3329 35.5217 24.7118C35.6271 28.9227 32.906 32.1767 29.4396 33.6259C28.0475 34.2069 26.585 34.5145 25.0732 34.5145C20.3412 34.5214 15.6021 34.5829 10.8701 34.494C7.30527 34.4257 4.37324 32.9765 2.2709 30.119C1.16699 28.6151 0.639648 26.9061 0.639648 25.0536C0.639648 20.1522 0.639648 15.2577 0.639648 10.3563C0.639648 6.35732 2.64355 3.56142 6.20137 1.74306C7.74824 0.956927 9.42871 0.621966 11.1795 0.61513C15.7709 0.61513 20.3693 0.587786 24.9607 0.628802C28.5256 0.656145 31.4998 1.98232 33.6935 4.77138C34.917 6.32997 35.5076 8.12099 35.5076 10.0897C35.5076 12.578 35.5076 15.0731 35.5076 17.5683ZM3.23418 17.5683C3.23418 20.077 3.23418 22.579 3.23418 25.0878C3.23418 26.2089 3.50137 27.2616 4.09902 28.2118C5.66699 30.7069 8.03652 31.9237 10.9756 31.9716C15.6936 32.0399 20.4186 31.9989 25.1435 31.9852C26.3037 31.9852 27.4287 31.7528 28.4764 31.2675C31.331 29.9413 32.9271 27.829 32.9131 24.6571C32.885 19.8036 32.906 14.9501 32.906 10.0966C32.906 8.72255 32.5053 7.46474 31.6685 6.35732C30.0514 4.23134 27.8154 3.18544 25.1435 3.1581C20.4326 3.10341 15.7217 3.13759 11.0107 3.14443C10.0053 3.14443 9.03496 3.34267 8.09277 3.68447C5.50527 4.62099 3.10059 6.99306 3.21309 10.4862C3.29746 12.8515 3.23418 15.2099 3.23418 17.5683Z" fill="#31DC89"/>
<path d="M18.1125 24.8145C13.5774 24.8145 9.9211 21.3008 9.91407 16.9258C9.90704 12.6192 13.5914 9.09181 18.0984 9.09181C22.6195 9.08497 26.2899 12.6055 26.2969 16.9463C26.2969 21.2803 22.6336 24.8076 18.1125 24.8145ZM18.1125 22.2852C21.1992 22.2852 23.7024 19.8858 23.6953 16.9326C23.6883 14.0068 21.1852 11.6143 18.1125 11.6143C15.0258 11.6143 12.5086 14 12.5086 16.9463C12.5156 19.8994 15.0258 22.292 18.1125 22.2852Z" fill="#31DC89"/>
<path d="M27.2459 6.69922C28.1952 6.69922 28.9686 7.48535 28.9686 8.44922C28.9616 9.41308 28.1811 10.1924 27.2319 10.1855C26.2967 10.1787 25.5303 9.39941 25.5303 8.45605C25.5233 7.49219 26.2967 6.69922 27.2459 6.69922Z" fill="#31DC89"/>
</svg>
